<svg id="Layer_1" data-name="Layer 1" xmlns="http://www.w3.org/2000/svg" viewBox="0 0 507.51 654.22"><defs><style>.cls-1{fill:#fe9ab6;}.cls-2{fill:#e7e7e7;}.cls-3{fill:#01ac77;}.cls-4{fill:#069a63;}.cls-5{fill:#fcb3cc;}.cls-6{fill:#fdcb65;}.cls-7{fill:#fdca65;}.cls-8{fill:#05c393;}.cls-9{fill:#fc6b9c;}.cls-10{fill:#01697d;}.cls-11{fill:#05ab76;}.cls-12{fill:#fa6a9c;}.cls-13{fill:#fdd479;}.cls-14{fill:#f8b246;}.cls-15{fill:#f9b241;}.cls-16{fill:#fefdfb;}.cls-17{fill:#613640;}.cls-18{fill:#603643;}.cls-19{fill:#0cc292;}.cls-20{fill:#02c394;}.cls-21{fill:#02c291;}.cls-22{fill:#f6b452;}.cls-23{fill:#f8d77e;}.cls-24{fill:#067b96;}.cls-25{fill:#037c96;}.cls-26{fill:#01373f;}.cls-27{fill:#fdcd72;}.cls-28{fill:#e9f4f6;}.cls-29{fill:#2e9fb5;}</style></defs><title>logo_coin_pig_app</title><path class="cls-1" d="M457,256.32c6.42-4,12.74-8.28,19.29-12.09,21.68-12.61,43.44-25.07,65.18-37.57a7.14,7.14,0,0,1,1.42-.45c0,2.48,0,5,.15,7.44.41,8.59,4.71,15.44,11,17.58,7.24,6.79,15.27,6.21,23.67,2.62a35.18,35.18,0,0,1,4.47-1.26,30,30,0,0,1-3.92,3.25c-17.68,10.28-35.39,20.48-53.7,31,4.66,2.72,8.93,4.95,12.9,7.63,2.92,2,5.19,1.65,8.12-.06,25.72-15,51.54-29.83,77.33-44.73,5.26-3,10.5-6.11,16.38-9.53-5.16-3-9.48-5.81-14.06-8.05a7,7,0,0,0-5.62,0c-11.07,6.1-22,12.52-33,18.77a28.72,28.72,0,0,1-4.47,1.66,15.42,15.42,0,0,1,2.11-2.48c16.21-12.72,25.65-29.2,27.79-49.76,31.21-.29,59.38,9.69,85.8,25.49C708,211.92,718,218.16,728,224.32l8.75,6.82c7.06,7.38,15,14.12,21,22.32,7.29,10.1,12.88,21.43,19.21,32.22-4.39,7.93-3.74,15.95-.14,23.87,1.83,4.05,4.15,7.89,6.25,11.82-.33,5.46-.44,10.94-1,16.37-2.7,25-11.21,48.06-24.31,69.45-4.15,6.77-8.57,13.37-12.87,20.06l-18.57,20a108.36,108.36,0,0,1-8.64,6.55c-14.47,8.93-29.07,17.66-43.54,26.59-4.53,2.8-8.81,6-13.2,9l-14.62,7.73c-14.31,8.07-28.64,16.1-42.91,24.24-3.13,1.78-6.06,3.92-9.09,5.89a28.36,28.36,0,0,0-4.72,1.19,105.9,105.9,0,0,1-44.75,8.61c-8.34-.19-16.65-1.77-25-2.73l-3.11-1.09c-6.48-2-13-3.83-19.43-6.12-6.84-2.46-13.53-5.36-20.28-8.07l-33-18.76c-1.84-1.93-3.55-4-5.54-5.76-4.76-4.18-9.65-8.2-14.49-12.28a14.06,14.06,0,0,1,3.81.25c10.11,3.49,20.17,7.25,30.16-.3l1-1,0,0c11.76-2,19.1-12.32,16.81-23.95a47.82,47.82,0,0,0-3.25-9.9c-5.11-11.53-12.87-21.09-22.27-29.43-9.22-8.18-19.53-14.41-31.56-17.23-9.26-2.17-17.15,1-23.69,7.75l-12.07,6.82c-.47-11.7-2.21-23.52-1.15-35.09,2.59-28.14,13.44-53.51,28.58-77.23,1.46-2.28.66-6.34.18-9.45-2-13.15-3.86-26.25-1.65-39.57,1-5.86,3.63-10.24,9.23-12.58,3.73,1.59,8.17,2.38,11.06,4.93,5.42,4.79,10.81,10,14.67,16.09,7.62,11.95,14.4,24.46,21.08,37,2.11,3.95,4.12,4,7.33,2,5-3,9.94-6,15-8.79,6.06-3.35,6.38-3.72,1.3-8.19-9-8-18.44-15.54-27.61-23.38A35.31,35.31,0,0,1,457,256.32ZM569.2,379.5c3-14.79,4.63-28.54,1.1-42.38a38,38,0,0,0-4.7-10.92c-3.67-5.74-9.24-8.77-16.17-7.79-8.72,1.22-15.62,6-22,12.18ZM419,304h42.91c-6.7-11.42-12.42-22.09-19.06-32.14a66.62,66.62,0,0,0-13.39-14.56c-5-4.11-9.41-2.17-11.48,4a27.6,27.6,0,0,0-1.1,4.86C415,278.83,417.16,291.31,419,304Zm124.42,3.91a13.74,13.74,0,0,0,1.61.34c1.33,0,2.67.09,4,0,11.24-.93,18.56,5,23.94,13.95,8.66,14.43,8.8,30.18,6.49,46.18-.83,5.74-2.09,11.42-3.3,17.89,8.21-4.58,15.8-8.63,23.14-13.08,1.13-.68,1.8-3.27,1.56-4.81a67.18,67.18,0,0,0-3.05-13c-5-13.55-11-26.58-19.79-38.27C569,305.07,556.67,301.27,543.39,307.91ZM417.64,380.67c-1-7.77-4.66-15-12.57-19.43-5.87-3.26-10.94-.35-11.06,6.29-.17,9.26,4,16.44,11.75,21.28C412.23,392.88,417.76,389.36,417.64,380.67Zm87.21,50.19c-.85-7.58-4.36-14.72-11.87-19.29-6.57-4-12.24-.59-11.85,7.16a24.22,24.22,0,0,0,11.6,19.93C499.25,442.84,504.71,439.63,504.85,430.86Z" transform="translate(-381.45 -50.1)"/><path class="cls-2" d="M594.3,527.05c3-2,6-4.11,9.08-5.9C617.65,513,632,505,646.29,496.91c2.77,6.19,8.22,9.29,14,12-10.36,6.23-20.74,12.42-31,18.71-3.16,1.93-6.13,4.17-9.19,6.26-1.44,11.09-1.44,11.09,8.15,16.36,1,.55,2,1.14,3,1.71a20.67,20.67,0,0,1-1.93,3.78q-13.05,16.51-26.25,32.9a57,57,0,0,1-4.79,4.65c-1.9-.78-3.81-2.24-5.7-2.22-22.65.19-44.72-3.61-66.75-8.57-21.62-4.88-41.35-14.06-60.56-24.58-14.19-7.77-25.69-19-35.12-31.89a65.27,65.27,0,0,1-12.95-33.94c-.15-2,.57-4.13.89-6.19l.93.06c.8,4.24,1.91,8.45,2.35,12.73,1.15,11.45,8.55,17.16,18.51,20.42,12.42,4.06,24.88,3.65,37.27-.32,6.75,2.71,13.44,5.62,20.28,8.07,6.39,2.3,12.95,4.11,19.43,6.13.73,4.07,1.66,8.12,2.13,12.23a17.92,17.92,0,0,0,10,14.55c17.11,8.9,34.43,8.86,51.56.05a17.88,17.88,0,0,0,9.88-13.58c.87-5.23,2.22-10.39,3.36-15.58C593.9,529.49,594.1,528.27,594.3,527.05Z" transform="translate(-381.45 -50.1)"/><path class="cls-3" d="M885.11,589.58c3.22,3.77,2.34,11.9-1.55,14.46-.82.54-2.11,1-2.33,1.74-3.12,10.82-12.58,17.14-18.31,26.09a23.25,23.25,0,0,0-1.08,2.18c-3.88,3.68-3.88,3.68,4.62,10.74-.84.41-1.6.72-2.32,1.13-6.75,3.87-13.89,7.22-20.11,11.83-4.33,3.2-7.4,8.13-11,12.29l-3,2c-4.36-.78-8.61-1.9-12.9.88-6.22,4-12.74,7.61-19.06,11.52-2.36,1.45-4.17,1.63-6.69-.07-4.65-3.12-9.75-5.55-14.53-8.47-4-2.48-7.9-5.24-11.84-7.88l8-2c2.62,2.56,5.16,5.72,9.38,4.29,8.44-2.85,16.74-3.34,25.23-.1,1.48.56,3.59-.53,5.41-.86-.1-.47-.21-.93-.32-1.39L799,663.08l28-5c1.72,2.49,3.3,2.75,5.37.15,7.18-9,14.59-17.86,21.72-26.92C858.29,626,862.06,620.43,866,615l.23-.42L866,615c-11.43,3.72-19.43,11.58-26.19,21.18-2.78,4-6.45,7.28-9.72,10.89L829,646a6.49,6.49,0,0,0,0-2c-.64-2-1.41-3.86-2.13-5.79a46.16,46.16,0,0,0-5.74,2.24c-4.43,2.43-8.75,5.06-13.11,7.61L800,650c-2.75-2.9-5.89-4.63-10.11-4q-15.42,2.34-30.87,4.5c-12.86,1.81-25.73,3.56-38.52,5.33-1.32-2.58-2.5-4.6-3.41-6.73-6.45-15.1-12.9-30.19-19.22-45.34-2.15-5.15-3.9-10.47-5.84-15.71l29,3c4.2,2.89,8.25,6.07,12.65,8.63,21.52,12.5,43.17,24.8,64.7,37.29,2.48,1.44,4.25,2.22,7.16.46,11.29-6.85,22.83-13.3,34.26-19.92,13.51-7.82,27-15.62,40.45-23.55C882.1,592.88,883.51,591.06,885.11,589.58ZM783.86,642.29c.17-.5.33-1,.5-1.51L703,593.83l-1,1.14c5.61,13.25,11.35,26.46,16.75,39.79,1.34,3.32,3,4.54,6.56,4.3,7.76-.52,14.69,1.39,20.06,7.61.78.91,3,1,4.48.8,6.07-.69,12.11-1.57,18.15-2.49C773.33,644.16,778.59,643.19,783.86,642.29Z" transform="translate(-381.45 -50.1)"/><path class="cls-4" d="M830,672l3-2c9-4.92,18.15-9.67,27.06-14.8,6.11-3.51,11.92-7.54,17.87-11.33,3.15,5.42,1.7,12.06-3.23,14.92q-37.94,22-75.83,44.19c-2.76,1.61-4.74,1.8-7.61.11-16.76-9.87-33.71-19.43-50.49-29.28-3.34-2-6.43-2.92-10.32-2a82.12,82.12,0,0,1-13.32,1.86c-1.48.08-3-1.5-4.55-2.35-.12-.06-.18-.28-.21-.44-3.12-14.52-13.27-22.42-25.9-28.51-7.88-3.8-15.17-8.82-22.73-13.29L698.08,636,691,622l-1-4.93L686,610c-.32-.93-.62-1.87-1-2.78q-4.08-10.55-8.19-21.09L682,587q4.53,10.78,9.07,21.56c7,16.5,14,33,21,49.52,1.4,3.34,3.16,4.36,6.93,3.3,4.58-1.3,9.44-1.63,14.19-2.28Q766.54,654.49,800,650l8-1.91L829,646l1.11,1.09c0,2.57.25,5.2-.21,7.69-.23,1.23-1.84,2.2-2.83,3.28l-28,5L773,666l-8,2h-9.6c-.09.48-.19.95-.29,1.42a34.66,34.66,0,0,0,3.33,2.52c7.43,4.36,14.86,8.71,22.35,13,4.74,2.69,9.58,7.25,14.36,7.22s9.62-4.58,14.3-7.37C816.37,680.59,823.17,676.25,830,672Z" transform="translate(-381.45 -50.1)"/><path class="cls-5" d="M382.93,415.06,395,408.23c4.89.61,10.14.27,14.61,2,23.79,9.09,40.74,25.54,50.28,49.23,2.87,7.13,3.21,14.54-.93,21.56l0,0-1,1c-10,7.55-20.05,3.8-30.16.3A14.47,14.47,0,0,0,424,482l-7-5c-7.43-7.29-15.46-14.08-22.13-22C385.28,443.62,379.82,430.48,382.93,415.06Zm22.79,24.15c-.13-6.13-5-12.75-8.56-12.1-1.43.27-3.32,3-3.41,4.66-.26,5,4.95,11.28,8.54,10.54C403.85,442,405,439.87,405.72,439.21Zm39.92,22.92c-.12-6.17-4.86-12.33-8.55-12.34-3.24,0-3.7,2.28-3.63,4.77.14,4.94,5.07,11.23,8.68,10.57C443.7,464.84,444.93,462.78,445.64,462.13Z" transform="translate(-381.45 -50.1)"/><path class="cls-6" d="M778.88,283.89c9.46-13.52,22.45-12,36.78-4.65a66.29,66.29,0,0,1,25.39,23.33c4.5,6.89,4.56,6.8,12.73,4.48,9.42-2.69,17.38-.36,23.72,7.17a5.27,5.27,0,0,1,.57,1.35c.09,4.27,1,8.68.15,12.76-3.62,17.91-15.88,29.6-30.57,38.55-9.23,5.62-19.5,10.62-31,4.67-.63-.32-2.4,1.58-3.64,2.45-2.25,6.21-.64,12.4,4.82,16.16,13.06,9,38.47,10,51.48-1,5-4.22,6.34-11.79,2.73-16.16l-7.79-8.2,5.84-6.76c2.17,2,4.2,4.2,6.53,6,8.63,6.75,11.23,15.45,7.66,26.24-.32-1-.65-2-.87-2.73-4.57,3.59-8.47,7.88-13.32,10.23-10.34,5-21.67,5.76-33.06,5.21-8.93-.43-17.43-2.67-24.83-7.66-4.16-2.81-7.49-6.87-11.2-10.37-.81-7.65.37-14.57,6.89-19.72a3.58,3.58,0,0,0,1.06-3.08c-2.09-6.34.62-12.11,1.86-18.06,4.46.78,6.75,2.93,6.39,7.95-.14,1.92,1.8,4,2.79,6,0,4.15,3,6.1,6.26,6.67a22.85,22.85,0,0,0,10.38-.25c15.63-4.88,26.75-14.9,32.47-30.44,2-5.5,1.48-11-2.29-15.56-4.07-4.89-9.89-3.78-15.33-3.11-2.77.34-3.82,1.9-3.29,4.9,2.07,11.8-1.28,16.51-10.15,21.68-5.73-.51-11.68-.19-17.13-1.7C808,336.68,797.83,328.3,790,318c-4.88-6.48-7.4-14.88-10.24-22.69C778.55,291.82,779.13,287.7,778.88,283.89Zm61.48,36.66a43,43,0,0,0-1.33-6.76c-6-16.61-17.56-27.23-34.91-31.24-8.67-2-16,3.89-16.14,12.7-.1,8.5,4.3,15.08,8.94,21.62,6.93,9.76,17,14.52,28.18,17C832.11,335.45,841.58,329.49,840.36,320.55Z" transform="translate(-381.45 -50.1)"/><path class="cls-7" d="M878.77,457.09c1.71,2.13,4.53,4.08,4.91,6.43.89,5.51.61,11.21.81,16.84-1.2.1-2.87-.25-3.51.41a35,35,0,0,0-3.78,5.37c1.45.24,3.22,1.1,4.27.57,1.26-.64,1.91-2.48,2.83-3.8l-.93,24.22a12.88,12.88,0,0,0-2.46,2.17c-4.82,7-12.1,10.31-19.74,12.54-9.38,2.75-19.15,4.59-28.84,2a130.51,130.51,0,0,1-23.58-8.34c-3.77-1.82-6.23-6.37-9.74-10.18V509l-2,6c-1.09.28-2.19.51-3.26.85L777.2,521.1a.53.53,0,0,1-.36-.71l-.78-2.36a.38.38,0,0,1-.17-.58L775,516l-.23-.21.09-.29c-.33-.86-.65-1.71-1-2.56l0-.35-1-1.56-.76-2c6.3-2.68,12.87-4.89,18.83-8.21,3.88-2.17,7.57-5.3,8.13-10.62.26-2.37,1.48-4.64,2.26-7l2.34-.58-8.82-10.57A8.66,8.66,0,0,0,794,472l0,.05c0-.64,0-1.28-.07-1.93.18-1.2.37-2.41.62-4.05a10.71,10.71,0,0,1,1.5,1.29c7,9.58,17.66,13.59,29,10.53,1.21-.33,1.94-2.43,2.89-3.7L849,474c1.21.9,2.3,2.25,3.66,2.63C861.9,479.25,872,473.41,875,464v0c.33-.71.67-1.41,1-2.12Q877.37,459.48,878.77,457.09ZM870,493c-.28-.41-.52-.85-.83-1.23-8.57-10.68-31.25-11.86-41.68-7.95A6.85,6.85,0,0,0,826,485c-5.81-.34-9.64,3.44-12.87,7.19-5.61,6.51-4.05,12.75,2.6,18.38,10.19,8.64,22,7.82,34,7.05A29.94,29.94,0,0,0,867,511C873.27,506,874.56,498.55,870,493Z" transform="translate(-381.45 -50.1)"/><path class="cls-7" d="M582.16,232.32a35.15,35.15,0,0,0-4.47,1.25c-8.4,3.6-16.43,4.17-23.67-2.61-1.34-4.22-3.41-8.35-3.9-12.66-1.88-16.66,4.58-31.08,14.38-43.73,8.37-10.8,18.78-19.45,33.94-18.64,9.34,3,12.38,10.46,13.46,19.23.2,1.63.11,3.29.15,4.93-2.14,20.57-11.58,37-27.79,49.76a16.34,16.34,0,0,0-2.11,2.48l-.19-.2ZM564,223c2.54,4.38,6.46,3.16,10.16,2.4,8.38-1.71,13.51-8,18.75-13.9a41.25,41.25,0,0,0,10.93-29c-.12-5.37.31-12-6.79-14.51-5.43-4.67-14.62-.66-20,3.74-11.21,9.22-17.76,21.21-19.91,35.6C556.17,213.63,559.21,220.73,564,223Z" transform="translate(-381.45 -50.1)"/><path class="cls-8" d="M885.11,589.58c-1.6,1.48-3,3.3-4.85,4.39-13.43,7.93-26.94,15.73-40.45,23.55-11.43,6.62-23,13.07-34.26,19.92-2.91,1.76-4.68,1-7.16-.46-21.53-12.49-43.18-24.79-64.7-37.29-4.4-2.56-8.45-5.74-12.65-8.64L738,593.11a70.75,70.75,0,0,0,6,4.43c18.37,10.88,36.72,21.8,55.28,32.34,2,1.13,5.5.51,7.92-.37,2.85-1,5.22-3.35,7.9-4.93q26.81-15.76,53.66-31.42c4.27-2.49,4.49-3.19.15-5.82C857,580.12,844.93,573.1,833,566l2.61-5.08Z" transform="translate(-381.45 -50.1)"/><path class="cls-6" d="M551,116.93c-9.64-7.17-10.24-16.2-6.09-26.8C552.4,71,566.42,58.05,586.22,51.9c12.72-3.95,19.29-1.63,27.7,9.14a25,25,0,0,0-.87,4.7c0,7.06-1.17,13.73-5.24,19.77-13.4,19.87-29.34,35.1-55.91,31.56l.06.06Zm53.77-43.34c-.16-10.86-6.7-16-17.4-14.11-7.24,1.28-13.13,4.54-18.6,8.74-7.32,5.62-13.62,12.57-16,21.61-3.11,11.66.49,20.29,14.41,19.08a42.37,42.37,0,0,0,11.88-3c10-4,15.9-12.5,21.7-20.82C603,81.87,603.5,77.45,604.79,73.59Z" transform="translate(-381.45 -50.1)"/><path class="cls-6" d="M455.94,131.65c4.37-7.55,11.45-9.34,19.25-8.12,18.06,2.83,31,13.56,40.95,28.23,4.39,6.46,7.69,13.46,8,21.65.26,7.13-2.28,12.56-8,16.6-8.45,2.82-16.73,1.68-24.57-1.86-12.55-5.68-21.95-14.94-29.75-26.29C455.26,152.42,453.54,142.56,455.94,131.65Zm59,37.46c0-.59,0-1.92,0-3.25a5,5,0,0,0-.32-1.46c-6-16.53-17.09-27.74-34.3-32-8.53-2.12-17.85,1.88-17.21,13.77A25.19,25.19,0,0,0,466,156c6.59,12.74,15.71,23.15,30.29,26.39C506.61,184.72,515.69,181.59,515,169.11Z" transform="translate(-381.45 -50.1)"/><path class="cls-7" d="M879.16,408l-4.77,15.08c-2.72,2.75-5.18,5.85-8.22,8.2a42.46,42.46,0,0,1-22.79,9c-19.85,1.64-39,1.32-51.91-17.62-.1-.14-.89.19-1.36.3-.23-6.21-.49-12.43,4.83-17.06a20.26,20.26,0,0,1,3.34,1.63c4.13,3,7.94,6.58,12.34,9.11,11.56,6.64,24.34,6,36.94,4.84,10.9-1,20.84-4.73,28.57-13.06C876.67,407.91,878.13,408.17,879.16,408ZM856,428c-1.66.06-3.33,0-5,.19-11.92,1.35-23.83,2.16-35.3-2.45-4.9-2-9.6-4.49-14.94-7,1.05,5.21,4.69,7.92,8.37,10.11,14,8.33,28.58,8.27,43.34,2.11,1.34-.56,2.35-1.94,3.51-2.94l.23-.42Z" transform="translate(-381.45 -50.1)"/><path class="cls-9" d="M457,256a35.4,35.4,0,0,0,4,4.78c9.17,7.84,18.57,15.4,27.61,23.37,5.08,4.48,4.76,4.84-1.3,8.19-5.07,2.81-10,5.82-15,8.8-3.21,1.93-5.22,1.92-7.33-2-6.68-12.52-13.46-25-21.08-37-3.86-6-9.25-11.3-14.67-16.09-2.89-2.55-7.33-3.34-11.06-4.92,5-4.21,10.16-3.67,15.18-.37,6.39,4.2,12.57,8.72,18.9,13A33,33,0,0,0,457,256Z" transform="translate(-381.45 -50.1)"/><path class="cls-10" d="M835.56,560.92,833,566l-1.83,5.09q-3,9-6,17.93c-3.45,10.28-9,13.51-19.67,11.63-4.4-.78-8.88-1.15-13.32-1.67q-21-2.41-42-4.8L738,593.11,721,591.05l-29-3L682,587l-5.08-.86c-6.73-.74-13.47-1.42-20.19-2.24-12.1-1.49-14.72-5.18-13.55-12.75,3.46,2,6.7,4.61,10.41,5.71,4.37,1.3,9.13,1.2,13.72,1.78,8.84,1.1,17.67,2.38,26.53,3.35,11,1.19,22.05,2,33.05,3.23,13.46,1.48,26.88,3.21,40.33,4.79,13.93,1.64,27.89,3.09,41.8,4.89,6.66.86,11.75-1.77,14.29-8.16.91-2.28,2-4.5,2.76-6.84,2.39-7.89,4.64-15.82,7-23.74.95-3,1.89-6,2.84-9,.45-2.79.91-5.58,1.36-8.38l1.66.82v.31l-.31,9.34a.42.42,0,0,0-.11.57l-2.85,7.6Z" transform="translate(-381.45 -50.1)"/><path class="cls-11" d="M691,622l7.09,14-34.34-6.89q-24.66-7.49-49.34-15a106.67,106.67,0,0,0-13.93-3.68c-4-.62-4.81-2.6-4.42-6.05.25-2.13.23-4.29.33-6.44,3.23.68,6.5,1.23,9.68,2.08,16.9,4.53,33.75,9.27,50.68,13.69C668.1,616.69,679.57,619.25,691,622Z" transform="translate(-381.45 -50.1)"/><path class="cls-12" d="M736.79,230.87,728,224.05l8.61-9.31c-10.3-2.32-18.65-5.1-18.4-16.32.11-5,3.85-9,8.82-10.22,7.35-1.84,12.42,1,18.44,10.31,5-3.07,5.45-11.82,2.3-16.5a37.17,37.17,0,0,0-3.07-3.91c-2.35-2.65-2.92-5.91,0-7.75,1.74-1.08,5.75-.77,7.36.56,11.51,9.52,10.72,27.45-1,37.57-2.17,1.86-3.35,4.89-4.94,7.42Q741.46,223.37,736.79,230.87Z" transform="translate(-381.45 -50.1)"/><path class="cls-7" d="M873.69,431.05c6.24,5,6.89,11.77,6,19-.73.59-1.47,1.18-2.19,1.78-4,3.25-7.45,7.38-11.92,9.58a61.67,61.67,0,0,1-37.52,5.68c-10.59-1.63-20.31-4.49-28.06-12.38-1.36-1.37-3.66-1.82-5.52-2.7-.1-.69-.19-1.37-.28-2.06.09-.13.28-.33.26-.36a5.3,5.3,0,0,0-.59-.57l-4.1-6.68L790,440c4.81,3.07,9.37,6.63,14.47,9.1,14.13,6.85,29,6.64,43.91,3.17,8.9-2.06,16.76-6.21,22-14.09.71-1.06.45-2.77.64-4.17Z" transform="translate(-381.45 -50.1)"/><path class="cls-13" d="M879.16,408c-1,.13-2.49-.13-3,.45-7.73,8.33-17.67,12.07-28.57,13.06-12.6,1.14-25.38,1.8-36.94-4.84-4.4-2.53-8.21-6.1-12.34-9.11a20.26,20.26,0,0,0-3.34-1.63,61.14,61.14,0,0,1,.24-6.36c.66-4.77.62-9.9,5.39-13,1.56,8.81,7.29,14.23,14.85,18.12,10.73,5.51,22.31,6.17,34,5.18a74,74,0,0,0,16.79-3.65c4.64-1.54,8.89-4.24,13.31-6.43Z" transform="translate(-381.45 -50.1)"/><path class="cls-8" d="M691,622c-11.42-2.75-22.89-5.31-34.25-8.28C639.81,609.3,623,604.56,606.06,600c-3.18-.85-6.45-1.4-9.68-2.08q.89-2.33,1.78-4.62a57,57,0,0,0,4.79-4.65q13.21-16.38,26.25-32.9a20.67,20.67,0,0,0,1.93-3.78l6.06,4.37-30.35,38.1c3,.93,5.66,1.83,8.32,2.53,6.07,1.61,12.18,3,18.24,4.68q28.29,7.65,56.54,15.39Z" transform="translate(-381.45 -50.1)"/><path class="cls-14" d="M813,374c1.24-.87,3-2.77,3.64-2.45,11.52,5.95,21.79.95,31-4.67,14.69-8.95,27-20.64,30.57-38.55.83-4.08-.06-8.49-.15-12.76q8.32,8.54,4.89,20c-2.55,8.5-6.42,16.24-12.89,22.5l-5.84,6.76L872,373c-2.32-1.14-4.61-2.32-6.95-3.41-1.12-.52-2.62-1.54-3.43-1.17-4.44,2-8.66,4.44-13.08,6.48-4,1.84-8.31,5-12.26,4.64C828.4,378.92,819.55,380.71,813,374Z" transform="translate(-381.45 -50.1)"/><path class="cls-14" d="M598.44,155.93c-15.16-.81-25.57,7.84-33.94,18.64-9.8,12.65-16.26,27.07-14.38,43.73.49,4.31,2.56,8.44,3.9,12.66-6.27-2.14-10.57-9-11-17.59-.12-2.47-.11-5-.15-7.43,4.33-23.36,14.59-42.52,37.56-52.48C586.8,150.71,593,151.28,598.44,155.93Z" transform="translate(-381.45 -50.1)"/><path class="cls-14" d="M778.88,283.89c.25,3.81-.33,7.93.92,11.38,2.84,7.81,5.36,16.21,10.24,22.69,7.79,10.34,18,18.72,30.85,22.3,5.45,1.51,11.4,1.19,17.13,1.7-.91,1.29-1.54,3.24-2.76,3.75a39.62,39.62,0,0,1-10.64,3.14c-3.33.37-4.91,1.34-4.64,4.77.12,1.47,0,3,0,4.45-1-2-2.93-4.08-2.79-6,.36-5-1.93-7.17-6.39-7.95-11.06-5.49-19.94-13.6-27.73-23-2.1-3.93-4.42-7.76-6.25-11.81-3.6-7.92-4.25-15.95.14-23.87Z" transform="translate(-381.45 -50.1)"/><path class="cls-14" d="M455.94,131.65c-2.4,10.91-.68,20.77,5.82,30.21,7.8,11.35,17.2,20.61,29.75,26.29,7.84,3.54,16.12,4.68,24.57,1.86A16.29,16.29,0,0,1,502,196.92c-11.22-.1-20.57-4.9-29.15-11.57-10.36-8-18.39-17.93-22.17-30.64C448.22,146.29,447.67,137.85,455.94,131.65Z" transform="translate(-381.45 -50.1)"/><path class="cls-14" d="M551.9,117.07c26.57,3.54,42.51-11.69,55.91-31.56,4.07-6,5.22-12.71,5.24-19.77a25,25,0,0,1,.87-4.7c6.66,7.7,5.19,16.39,1.55,24.32-9.23,20.13-24.33,33.65-46.64,37.91C561.58,124.66,554.69,122,551.9,117.07Z" transform="translate(-381.45 -50.1)"/><path class="cls-15" d="M879.49,399.83c-4.42,2.19-8.67,4.89-13.31,6.43a74,74,0,0,1-16.79,3.65c-11.66,1-23.24.33-34-5.18-7.56-3.89-13.29-9.31-14.85-18.12.14-.54.28-1.08.41-1.63,3.71,3.5,7,7.56,11.2,10.37,7.4,5,15.9,7.23,24.83,7.66,11.39.55,22.72-.18,33.06-5.21,4.85-2.35,8.75-6.64,13.32-10.23.22.71.55,1.72.87,2.73Z" transform="translate(-381.45 -50.1)"/><path class="cls-15" d="M794.49,452c1.86.88,4.16,1.33,5.52,2.7,7.75,7.89,17.47,10.75,28.06,12.38a61.67,61.67,0,0,0,37.52-5.68c4.47-2.2,8-6.33,11.92-9.58.72-.6,1.46-1.19,2.19-1.78,0,.64,0,1.28-.05,1.93-.13.45-.26.9-.4,1.35a.69.69,0,0,1-.17.68c-.15,0-.42.11-.42.17a4.24,4.24,0,0,0,.13.78c0,.7,0,1.4,0,2.1q-1.41,2.39-2.8,4.77c-.34.71-.68,1.41-1,2.12v0c-1.08.31-2.37.34-3.2,1C865,470.05,857.23,472.57,849,474l-21.08.11c-14-1-25.35-6.32-32.19-19.26-.24-.46-1.06-.61-1.6-.9C794.26,453.34,794.37,452.69,794.49,452Z" transform="translate(-381.45 -50.1)"/><path class="cls-15" d="M873.69,431.05c-.9,1-1.79,2-2.68,3-3.48,2.72-6.68,5.93-10.47,8.09-10.17,5.77-21.45,6.51-32.79,5.86-16.07-.92-30.32-5.47-38.17-21.3l.53-3.63c.47-.11,1.26-.44,1.36-.3,12.88,18.94,32.06,19.26,51.91,17.62a42.46,42.46,0,0,0,22.79-9c3-2.35,5.5-5.45,8.22-8.2-.15,1.63-.29,3.26-.44,4.89-.13.08-.37.15-.37.23a3.41,3.41,0,0,0,.15.76Z" transform="translate(-381.45 -50.1)"/><path class="cls-15" d="M799,509v-3.64c3.51,3.81,6,8.36,9.74,10.18a130.51,130.51,0,0,0,23.58,8.34c9.69,2.56,19.46.72,28.84-2,7.64-2.23,14.92-5.56,19.74-12.54a12.88,12.88,0,0,1,2.46-2.17c0,.64,0,1.29,0,1.93-.1.34-.21.68-.32,1a1.62,1.62,0,0,1-.2.94c-.2.45-.4.9-.61,1.35l0,1.3-4.35,6.27c-13.7,10.34-29.14,13.57-46,11.21l-4-.16-1,0-2.8-.07c-3.29-1.64-6.57-3.3-9.88-4.91C806.91,522.38,800.92,517.53,799,509Z" transform="translate(-381.45 -50.1)"/><path class="cls-14" d="M835.55,557.42l2.85-7.6c9.08,2.4,17.92,1.41,26.6-1.81,2.9-1.06,6.12-1.64,8.64-3.28,5-3.27,9.67-7.12,14.48-10.74.18,10.69-7.32,15.62-15.46,19.27C860.87,558.56,848.32,559.59,835.55,557.42Z" transform="translate(-381.45 -50.1)"/><path class="cls-8" d="M877.93,643.91c-5.95,3.79-11.76,7.82-17.87,11.33-8.91,5.13-18,9.88-27.06,14.8,3.63-4.16,6.7-9.09,11-12.29,6.22-4.61,13.36-8,20.11-11.83.72-.41,1.48-.72,2.32-1.13-8.5-7.06-8.5-7.06-4.62-10.74Z" transform="translate(-381.45 -50.1)"/><path class="cls-6" d="M888.12,534c-4.81,3.62-9.45,7.47-14.48,10.74-2.52,1.64-5.74,2.22-8.64,3.28-2.65-2.61-1.73-4.93,1.07-6.3a18.23,18.23,0,0,1,7.08-1.62c2.9-.11,4.43-.76,5.14-4a21.2,21.2,0,0,1,4.06-8.8c2.74-3.33,3-5.92-.13-8.83L879,521l-1.08-1.06,4.35-6.27C888.27,519.28,890.26,526.05,888.12,534Zm-3-6.79c-.4.49-.82.79-.85,1.12s.29.81.46,1.21c.38-.35.89-.64,1.1-1.08C885.89,528.25,885.42,527.77,885.08,527.2Z" transform="translate(-381.45 -50.1)"/><path class="cls-12" d="M417,477l7,5c4.84,4.09,9.73,8.11,14.49,12.29,2,1.75,3.7,3.83,5.54,5.76C433.64,499,425.44,494,418.9,486l-.93-.06C417.64,483,417.32,480,417,477Z" transform="translate(-381.45 -50.1)"/><path class="cls-15" d="M884.3,482.91c-.92,1.32-1.57,3.16-2.83,3.8-1.05.53-2.82-.33-4.27-.57a35,35,0,0,1,3.78-5.37c.64-.66,2.31-.31,3.51-.41C884.43,481.21,884.36,482.06,884.3,482.91Z" transform="translate(-381.45 -50.1)"/><path class="cls-7" d="M878.79,455a4.24,4.24,0,0,1-.13-.78c0-.06.27-.12.42-.17C879,454.35,878.89,454.67,878.79,455Z" transform="translate(-381.45 -50.1)"/><path class="cls-6" d="M882.26,512.37c.21-.45.41-.9.61-1.35C882.67,511.47,882.47,511.92,882.26,512.37Z" transform="translate(-381.45 -50.1)"/><path class="cls-7" d="M873.73,429a3.41,3.41,0,0,1-.15-.76c0-.08.24-.15.37-.23C873.88,428.34,873.8,428.67,873.73,429Z" transform="translate(-381.45 -50.1)"/><path class="cls-7" d="M879.25,453.36c.14-.45.27-.9.4-1.35C879.52,452.46,879.39,452.91,879.25,453.36Z" transform="translate(-381.45 -50.1)"/><path class="cls-14" d="M551,116.93l.94.2Z" transform="translate(-381.45 -50.1)"/><path class="cls-7" d="M883.07,510.08c.11-.34.22-.68.32-1C883.28,509.4,883.18,509.74,883.07,510.08Z" transform="translate(-381.45 -50.1)"/><path class="cls-16" d="M790.11,423c-.18,1.21-.35,2.42-.52,3.63-.45,3.13-.89,6.26-1.34,9.39.2,1.33.39,2.66.59,4l.94,2.33,4.1,6.68.33.93c.09.69.18,1.37.28,2.06-.12.65-.23,1.3-.35,1.95q-.09,8.06-.19,16.09c0,.65,0,1.29.07,1.93l-21-9.24c-.42-1.41-.52-3-1.32-4.2-5.15-7.41-10.15-15-15.82-22-3-3.74-7.32-6.46-11-9.64,4.3-6.68,8.72-13.29,12.87-20.06,13.1-21.38,21.61-44.42,24.31-69.44.58-5.43.69-10.92,1-16.38,7.79,9.43,16.67,17.54,27.73,23-1.24,5.95-3.95,11.72-1.86,18.06a3.58,3.58,0,0,1-1.06,3.08c-6.52,5.15-7.7,12.07-6.89,19.72-.13.55-.27,1.09-.41,1.63-4.77,3.1-4.73,8.23-5.39,13a61.14,61.14,0,0,0-.24,6.36C789.62,410.6,789.88,416.82,790.11,423Z" transform="translate(-381.45 -50.1)"/><path class="cls-17" d="M582.15,232.33a27.74,27.74,0,0,0,4.47-1.66c11-6.24,21.9-12.66,33-18.76a7,7,0,0,1,5.62,0c4.58,2.24,8.9,5,14.06,8-5.88,3.42-11.12,6.5-16.38,9.54-25.79,14.89-51.61,29.73-77.33,44.73-2.93,1.7-5.2,2-8.12.06-4-2.68-8.24-4.91-12.9-7.63,18.31-10.57,36-20.77,53.7-31a29.34,29.34,0,0,0,3.92-3.26l-.2-.18Z" transform="translate(-381.45 -50.1)"/><path class="cls-9" d="M459,481c4.14-7,3.8-14.43.93-21.56-9.54-23.69-26.49-40.14-50.28-49.23-4.47-1.71-9.72-1.37-14.61-2,6.54-6.71,14.43-9.91,23.69-7.74,12,2.82,22.34,9.05,31.56,17.22,9.4,8.34,17.16,17.91,22.27,29.44a47.54,47.54,0,0,1,3.25,9.89C478.06,468.68,470.72,479,459,481Z" transform="translate(-381.45 -50.1)"/><path class="cls-17" d="M569.2,379.22l-41.81-48.91c6.42-6.21,13.32-10.95,22-12.18,6.93-1,12.5,2.06,16.17,7.79a38.08,38.08,0,0,1,4.7,10.92C573.83,350.68,572.2,364.43,569.2,379.22Z" transform="translate(-381.45 -50.1)"/><path class="cls-17" d="M419,303.72c-1.81-12.69-4-25.16-2.12-37.88A27.8,27.8,0,0,1,418,261c2.07-6.12,6.47-8.06,11.48-4a66.89,66.89,0,0,1,13.39,14.57c6.64,10.05,12.36,20.71,19.06,32.13Z" transform="translate(-381.45 -50.1)"/><path class="cls-18" d="M593.71,530.7c-1.14,5.19-2.49,10.35-3.36,15.58a17.88,17.88,0,0,1-9.88,13.58c-17.13,8.81-34.45,8.85-51.56-.05a17.92,17.92,0,0,1-10-14.55c-.47-4.11-1.4-8.16-2.13-12.23l3.11,1.09c3.94,2.63,7.53,6.3,11.86,7.73C554.24,549.27,575.66,549,593.71,530.7Z" transform="translate(-381.45 -50.1)"/><path class="cls-2" d="M744.86,427c3.72,3.18,8,5.9,11,9.64,5.67,7,10.67,14.55,15.82,22,.8,1.15.9,2.79,1.32,4.2l-18.89-.84c-12.47-.55-23.39,3.54-33.17,11.08l5.31-26Z" transform="translate(-381.45 -50.1)"/><path class="cls-12" d="M726.29,447,721,473l-5.42,9-7.06,4.32c-3.85-1.82-7.2-.9-10.62,1.41-2.71,1.82-5.84,3-8.79,4.48-9.51.16-19.08.78-28.18-3,4.39-3,8.67-6.24,13.2-9,14.47-8.94,29.07-17.66,43.54-26.6C720.71,451.67,723.42,449.21,726.29,447Z" transform="translate(-381.45 -50.1)"/><path class="cls-9" d="M543.39,307.63c13.28-6.63,25.57-2.84,34.6,9.15,8.81,11.68,14.78,24.71,19.79,38.26a67.35,67.35,0,0,1,3.05,13c.24,1.54-.43,4.14-1.56,4.82-7.34,4.45-14.93,8.5-23.14,13.07,1.21-6.47,2.47-12.14,3.3-17.88,2.31-16,2.17-31.75-6.49-46.18-5.38-9-12.7-14.89-23.94-14-1.33.11-2.67,0-4,0A11.79,11.79,0,0,1,543.39,307.63Z" transform="translate(-381.45 -50.1)"/><path class="cls-18" d="M418.9,486c6.54,8,14.74,13,25.13,14.08l33,18.75c-12.39,4-24.85,4.38-37.27.32-10-3.26-17.36-9-18.51-20.42C420.81,494.45,419.7,490.24,418.9,486Z" transform="translate(-381.45 -50.1)"/><path class="cls-12" d="M593.71,530.7c-18.05,18.25-39.47,18.57-62,11.15-4.33-1.43-7.92-5.1-11.86-7.73,8.32,1,16.63,2.53,25,2.73a105.76,105.76,0,0,0,44.75-8.62,29.36,29.36,0,0,1,4.72-1.18C594.1,528.27,593.9,529.49,593.71,530.7Z" transform="translate(-381.45 -50.1)"/><path class="cls-17" d="M417.64,380.39c.12,8.69-5.41,12.21-11.88,8.15-7.71-4.84-11.92-12-11.75-21.29.12-6.63,5.19-9.55,11.06-6.28C413,365.36,416.61,372.63,417.64,380.39Zm-22.56-15.61.95,3,6.92,6.81c1-1.09,2.61-2.06,2.82-3.28.51-3-3.71-8.36-6.14-8.06A22.23,22.23,0,0,0,395.08,364.78Z" transform="translate(-381.45 -50.1)"/><path class="cls-18" d="M660.91,489.19c9.1,3.77,18.67,3.15,28.18,3L660.25,509c-5.74-2.76-11.19-5.86-14-12Z" transform="translate(-381.45 -50.1)"/><path class="cls-17" d="M504.85,430.59c-.14,8.76-5.6,12-12.12,7.8a24.24,24.24,0,0,1-11.6-19.94c-.39-7.75,5.28-11.15,11.85-7.16C500.49,415.86,504,423,504.85,430.59ZM495,423c-.35-1-.69-2-1-3L487,413.14c-1,1.1-2.57,2.09-2.78,3.32-.51,3.09,3.66,8.33,6.17,8A23.3,23.3,0,0,0,495,423Z" transform="translate(-381.45 -50.1)"/><path class="cls-9" d="M458,482l1-1Z" transform="translate(-381.45 -50.1)"/><path class="cls-19" d="M660.25,509l28.84-16.78c2.95-1.47,6.08-2.66,8.79-4.48,3.42-2.31,6.77-3.23,10.62-1.41l6.58,4c7.48,4.5,14.93,9.05,22.47,13.46a5.71,5.71,0,0,0,3.38.35c6.52-.88,13-1.88,19.55-2.84l.26.11.2-.2,7-.69a.35.35,0,0,0,.22.53l.85,1.06-.06,0,3.21,6.95.76,2,1,1.56,0,.35c.33.85.65,1.7,1,2.56l-.09.29.23.21.91,1.45a.38.38,0,0,0,.17.58l.78,2.36a.53.53,0,0,0,.36.71l2.88,5.93a3.06,3.06,0,0,0-.15.79l-17.9-1.9a25.8,25.8,0,0,0-3.71-3.18c-16.8-9.65-33.81-19-50.37-29-4.32-2.62-7-1.71-10.59.39-13.65,8.05-27.4,15.92-41.06,24-8.08,4.75-16.08,9.65-25.48,15.31L651,544c-1,2.67-2,5.35-3,8-.71-1-1.19-2.39-2.15-3q-10.7-7.18-21.6-14.07c-1.16-.73-2.81-.69-4.24-1,3.06-2.09,6-4.33,9.19-6.26C639.51,521.38,649.89,515.19,660.25,509Zm106.94,11.67c-1.89-5.08-3.09-8.82-4.72-12.35a4.25,4.25,0,0,0-3.31-2.12c-3.95.46-7.85,1.43-13,2.45Z" transform="translate(-381.45 -50.1)"/><path class="cls-3" d="M620,533.93c1.43.32,3.08.28,4.24,1q10.9,6.87,21.6,14.07c1,.64,1.44,2,2.15,3l-2.85,9a14,14,0,0,0-3.19,2.1q-6.39,7.54-12.55,15.3a12.23,12.23,0,0,0-1.29,3.12c4.91,4.3,13.84,6.32,8,15.71,10.22,2.94,20,5.95,29.87,8.53,6.62,1.72,13.39,2.84,20.09,4.22l3.9,7.09q-28.26-7.7-56.54-15.39c-6.06-1.64-12.17-3.07-18.24-4.68-2.66-.7-5.27-1.6-8.32-2.53l30.35-38.1L631.13,552c-1-.57-2-1.16-3-1.71C618.57,545,618.57,545,620,533.93Z" transform="translate(-381.45 -50.1)"/><path class="cls-20" d="M783.86,642.29c-5.27.9-10.53,1.87-15.81,2.69-6,.92-12.08,1.8-18.15,2.49-1.48.17-3.7.11-4.48-.8-5.37-6.22-12.3-8.13-20.06-7.61-3.54.24-5.22-1-6.56-4.3-5.4-13.33-11.14-26.54-16.75-39.79l1-1.14,81.36,46.95C784.19,641.28,784,641.79,783.86,642.29Z" transform="translate(-381.45 -50.1)"/><path class="cls-21" d="M682,587,692,588c1.94,5.25,3.69,10.57,5.84,15.72,6.32,15.15,12.77,30.24,19.22,45.34.91,2.13,2.09,4.15,3.41,6.73,12.79-1.77,25.66-3.52,38.52-5.33q15.45-2.18,30.87-4.5c4.22-.64,7.36,1.09,10.11,4q-33.42,4.54-66.85,9.09c-4.75.65-9.61,1-14.19,2.28-3.77,1.06-5.53,0-6.93-3.3-6.94-16.53-14-33-21-49.52Q686.46,597.76,682,587Z" transform="translate(-381.45 -50.1)"/><path class="cls-21" d="M830,672c-6.85,4.25-13.65,8.59-20.57,12.73-4.68,2.79-9.52,7.35-14.3,7.37s-9.62-4.53-14.36-7.22c-7.49-4.25-14.92-8.6-22.35-13a34.66,34.66,0,0,1-3.33-2.52c.1-.47.2-.94.29-1.42H765c3.94,2.64,7.8,5.4,11.84,7.88,4.78,2.92,9.88,5.35,14.53,8.47,2.52,1.7,4.33,1.52,6.69.07,6.32-3.91,12.84-7.48,19.06-11.52C821.41,670.1,825.66,671.22,830,672Z" transform="translate(-381.45 -50.1)"/><path class="cls-21" d="M827.05,658c1-1.08,2.6-2,2.83-3.28.46-2.49.18-5.12.21-7.69,3.27-3.61,6.94-6.94,9.72-10.89,6.76-9.6,14.76-17.46,26.19-21.18h0c-3.94,5.43-7.71,11-11.86,16.27-7.13,9.06-14.54,17.9-21.72,26.92C830.35,660.79,828.77,660.53,827.05,658Z" transform="translate(-381.45 -50.1)"/><path class="cls-21" d="M773,666l26-2.92,13.69,4.86c.11.46.22.92.32,1.39-1.82.33-3.93,1.42-5.41.86-8.49-3.24-16.79-2.75-25.23.1C778.16,671.72,775.62,668.56,773,666Z" transform="translate(-381.45 -50.1)"/><path class="cls-21" d="M829,646l-21,2.09c4.36-2.55,8.68-5.18,13.11-7.61a46.16,46.16,0,0,1,5.74-2.24c.72,1.93,1.49,3.83,2.13,5.79A6.49,6.49,0,0,1,829,646Z" transform="translate(-381.45 -50.1)"/><path class="cls-21" d="M866,615l.23-.42L866,615Z" transform="translate(-381.45 -50.1)"/><path class="cls-20" d="M686,610c-6.7-1.38-13.47-2.5-20.09-4.22-9.88-2.58-19.65-5.59-29.87-8.53,5.88-9.39-3.05-11.41-8-15.71a12.23,12.23,0,0,1,1.29-3.12q6.17-7.74,12.55-15.3a14,14,0,0,1,3.19-2.1q-1,5.06-2,10.12c-1.17,7.57,1.45,11.26,13.55,12.75,6.72.82,13.46,1.5,20.19,2.24q4.1,10.54,8.19,21.09C685.42,608.11,685.72,609.05,686,610Z" transform="translate(-381.45 -50.1)"/><path class="cls-18" d="M405.72,439.21c-.69.66-1.87,2.78-3.43,3.1-3.59.74-8.8-5.56-8.54-10.54.09-1.68,2-4.39,3.41-4.66C400.68,426.46,405.59,433.08,405.72,439.21Z" transform="translate(-381.45 -50.1)"/><path class="cls-18" d="M445.64,462.13c-.71.65-1.94,2.71-3.5,3-3.61.66-8.54-5.63-8.68-10.57-.07-2.49.39-4.78,3.63-4.77C440.78,449.8,445.52,456,445.64,462.13Z" transform="translate(-381.45 -50.1)"/><path class="cls-22" d="M840.36,320.55c1.22,8.94-8.25,14.9-15.26,13.34-11.23-2.5-21.25-7.26-28.18-17-4.64-6.54-9-13.12-8.94-21.62.1-8.81,7.47-14.7,16.14-12.7,17.35,4,28.86,14.63,34.91,31.24A43,43,0,0,1,840.36,320.55Z" transform="translate(-381.45 -50.1)"/><path class="cls-22" d="M820,358.07c0-1.48.13-3,0-4.45-.27-3.43,1.31-4.4,4.64-4.77a39.62,39.62,0,0,0,10.64-3.14c1.22-.51,1.85-2.46,2.76-3.75,8.87-5.17,12.22-9.88,10.15-21.68-.53-3,.52-4.56,3.29-4.9,5.44-.67,11.26-1.78,15.33,3.11,3.77,4.53,4.32,10.06,2.29,15.56-5.72,15.54-16.84,25.56-32.47,30.44a22.85,22.85,0,0,1-10.38.25C822.93,364.17,820,362.22,820,358.07Z" transform="translate(-381.45 -50.1)"/><path class="cls-22" d="M813,374c6.56,6.71,15.41,4.92,23.31,5.54,4,.31,8.25-2.8,12.26-4.64,4.42-2,8.64-4.51,13.08-6.48.81-.37,2.31.65,3.43,1.17,2.34,1.09,4.63,2.27,6.95,3.41,3.61,4.37,2.26,11.94-2.73,16.16-13,11-38.42,10-51.48,1C812.35,386.4,810.74,380.21,813,374Z" transform="translate(-381.45 -50.1)"/><path class="cls-22" d="M870,493c4.53,5.58,3.24,13-3,18a29.94,29.94,0,0,1-17.3,6.57c-12,.77-23.81,1.59-34-7.05-6.65-5.63-8.21-11.87-2.6-18.38,3.23-3.75,7.06-7.53,12.87-7.19,5.3.2,10.6.62,15.9.55,8.27-.12,16.42-.46,22.8,6.42C865.66,493,868.2,492.66,870,493Z" transform="translate(-381.45 -50.1)"/><path class="cls-23" d="M772.12,509l-3.21-6.95a24.08,24.08,0,0,0,13.63-5c8.8-6.39,8.74-18-.82-23.14-15.65-8.35-31.65-8.92-47.53-.52-7.81,4.14-9.45,8.44-7.17,16.81.74,2.71,13.19,12.65,15.81,12.58.48,0,.94-.38,1.42-.42q8.12-.59,16.23-1.13c-6.51,1-13,2-19.55,2.84a5.71,5.71,0,0,1-3.38-.35c-7.54-4.41-15-9-22.47-13.46l.48-8.34,5.42-9c9.78-7.54,20.7-11.63,33.17-11.08l18.89.84L794,472l0-.05.4,2.08c.26-1.1.37-1.53.47-2l8.82,10.57-2.34.58c-.78,2.32-2,4.59-2.26,7-.56,5.32-4.25,8.45-8.13,10.62C785,504.13,778.42,506.34,772.12,509Z" transform="translate(-381.45 -50.1)"/><path class="cls-13" d="M794,470.08q.09-8,.19-16.09c.55.29,1.37.44,1.61.9,6.84,12.94,18.22,18.25,32.19,19.26-1,1.27-1.68,3.37-2.89,3.7-11.32,3.06-22-1-29-10.53a10.71,10.71,0,0,0-1.5-1.29C794.32,467.67,794.13,468.88,794,470.08Z" transform="translate(-381.45 -50.1)"/><path class="cls-13" d="M799,509c1.91,8.54,7.9,13.39,15.3,17,3.31,1.61,6.59,3.27,9.88,4.91L806,529h-1l-7.84-10.07c0-1.31-.11-2.63-.16-3.94Z" transform="translate(-381.45 -50.1)"/><path class="cls-14" d="M870,493c-1.83-.31-4.37,0-5.37-1-6.38-6.88-14.53-6.54-22.8-6.42-5.3.07-10.6-.35-15.9-.55a6.85,6.85,0,0,1,1.56-1.17c10.43-3.91,33.11-2.73,41.68,7.95C869.51,492.12,869.75,492.56,870,493Z" transform="translate(-381.45 -50.1)"/><path class="cls-15" d="M797,515c0,1.31.11,2.63.16,3.94,0,1-.11,2-.16,3L780.08,527l-2.88-5.93,16.54-5.25C794.81,515.51,795.91,515.28,797,515Z" transform="translate(-381.45 -50.1)"/><path class="cls-13" d="M849,474c8.21-1.47,16-4,22.74-9.11.83-.64,2.12-.67,3.2-1-3,9.46-13.06,15.3-22.28,12.72C851.32,476.29,850.23,474.94,849,474Z" transform="translate(-381.45 -50.1)"/><path class="cls-16" d="M794.86,472.08c-.1.43-.21.86-.47,2L794,472A8.66,8.66,0,0,1,794.86,472.08Z" transform="translate(-381.45 -50.1)"/><path class="cls-13" d="M875,464c.33-.71.67-1.41,1-2.12C875.63,462.57,875.29,463.27,875,464Z" transform="translate(-381.45 -50.1)"/><path class="cls-23" d="M774.84,515.5c-.33-.86-.65-1.71-1-2.56C774.19,513.79,774.51,514.64,774.84,515.5Z" transform="translate(-381.45 -50.1)"/><path class="cls-23" d="M776.84,520.39l-.78-2.36Z" transform="translate(-381.45 -50.1)"/><path class="cls-23" d="M773.89,512.59l-1-1.56Z" transform="translate(-381.45 -50.1)"/><path class="cls-23" d="M775.89,517.45,775,516Z" transform="translate(-381.45 -50.1)"/><path class="cls-22" d="M564,223c-4.74-2.29-7.78-9.39-6.84-15.67,2.15-14.39,8.7-26.38,19.91-35.6,5.36-4.4,14.55-8.41,20-3.74.33,3.11.34,6.29,1,9.31,2.48,10.45-5.58,18.23-6.83,27.72-.1.8-1.29,1.45-2,2.2C582.41,215,574.12,220.53,564,223Z" transform="translate(-381.45 -50.1)"/><path class="cls-15" d="M564,223c10.17-2.49,18.46-8,25.32-15.78.66-.75,1.85-1.4,2-2.2,1.25-9.49,9.31-17.27,6.83-27.72-.71-3-.72-6.2-1-9.31,7.1,2.54,6.67,9.14,6.79,14.51a41.25,41.25,0,0,1-10.93,29c-5.24,5.85-10.37,12.19-18.75,13.9C570.41,226.18,566.49,227.4,564,223Z" transform="translate(-381.45 -50.1)"/><path class="cls-3" d="M831.12,571.09,833,566c12,7.1,24,14.12,35.91,21.34,4.34,2.63,4.12,3.33-.15,5.82q-26.87,15.65-53.66,31.42c-2.68,1.58-5,3.89-7.9,4.93-2.42.88-5.94,1.5-7.92.37-18.56-10.54-36.91-21.46-55.28-32.34a70.75,70.75,0,0,1-6-4.43l12.15,1.06c1.08,1.15,2,2.63,3.27,3.41,10.4,6.16,20.85,12.25,31.38,18.17a6.64,6.64,0,0,0,5.09.65c8.24-3.59,16.41-3.25,24.7-.42,1,.35,2.5.89,3.28.46,10.08-5.52,20.07-11.21,30.21-16.93-6.32-8.08-6.32-8.08-1-17.37-2.31-1.41-4.74-2.7-7-4.27C837,575.72,834.09,573.36,831.12,571.09Z" transform="translate(-381.45 -50.1)"/><path class="cls-22" d="M604.79,73.59c-1.29,3.86-1.8,8.28-4,11.48-5.8,8.32-11.74,16.84-21.7,20.82a42.37,42.37,0,0,1-11.88,3c-13.92,1.21-17.52-7.42-14.41-19.08,2.41-9,8.71-16,16-21.61,5.47-4.2,11.36-7.46,18.6-8.74C598.09,57.58,604.63,62.73,604.79,73.59Z" transform="translate(-381.45 -50.1)"/><path class="cls-22" d="M515,169.11c.72,12.48-8.36,15.61-18.7,13.31-14.58-3.24-23.7-13.65-30.29-26.39a25.19,25.19,0,0,1-2.86-9.9c-.64-11.89,8.68-15.89,17.21-13.77,17.21,4.3,28.34,15.51,34.3,32a5,5,0,0,1,.32,1.46C515,167.19,515,168.52,515,169.11Z" transform="translate(-381.45 -50.1)"/><path class="cls-22" d="M856,428c-1.16,1-2.17,2.38-3.51,2.94-14.76,6.16-29.34,6.22-43.34-2.11-3.68-2.19-7.32-4.9-8.37-10.11,5.34,2.53,10,5,14.94,7,11.47,4.61,23.38,3.8,35.3,2.45,1.65-.18,3.32-.13,5-.19Z" transform="translate(-381.45 -50.1)"/><path class="cls-22" d="M856,428l.23-.42L856,428Z" transform="translate(-381.45 -50.1)"/><path class="cls-24" d="M643.13,571.12q1-5.07,2-10.12l2.85-9c1-2.67,2-5.35,3-8q1.92-4.95,3.83-9.91c1,.66,1.88,1.79,2.91,1.92,9.21,1.14,18.44,2.05,27.65,3.14,24.35,2.88,48.67,5.89,73,8.69,24.85,2.86,49.71,5.52,74.57,8.27-2.31,7.92-4.56,15.85-7,23.74-.71,2.34-1.85,4.56-2.76,6.84-2.54,6.39-7.63,9-14.29,8.16-13.91-1.8-27.87-3.25-41.8-4.89-13.45-1.58-26.87-3.31-40.33-4.79-11-1.21-22-2-33.05-3.23-8.86-1-17.69-2.25-26.53-3.35-4.59-.58-9.35-.48-13.72-1.78C649.83,575.73,646.59,573.08,643.13,571.12Zm17.06-20.78L815.92,568c.83-2.52,1.59-4.8,2.49-7.51l-46.7-5.29c-34.74-3.93-69.5-7.75-104.21-11.92C661.85,542.54,660.58,545.09,660.19,550.34ZM739.72,564l-.09,1.74L813.24,574c.07-.62.14-1.25.2-1.88Zm-.74,3.71-.21,1.85,73.56,8.2c.06-.57.13-1.14.19-1.71Zm72.35,14.08.12-1.77-74.31-8.25c0,.52-.11,1-.17,1.58Z" transform="translate(-381.45 -50.1)"/><path class="cls-25" d="M762,525.92l17.91,1.9c14.53,1.71,29.07,3.32,43.58,5.21,4.22.55,8.34,1.91,12.51,2.9l.06,0,1.08,2.81c-.45,2.8-.91,5.59-1.36,8.38-17.46-2-34.92-4-52.38-6-16.81-1.86-33.64-3.57-50.45-5.44s-33.59-3.82-50.39-5.79c-8.22-1-16.43-2-24.64-3.06-.41-5.15,1.69-8.71,6.88-9.78,3.33-.69,6.78-.8,10.17-1.18,2.46.34,4.91.74,7.37,1L744,523.9Z" transform="translate(-381.45 -50.1)"/><path class="cls-26" d="M658,526.9c8.21,1,16.42,2.1,24.64,3.06q25.2,3,50.39,5.79c16.81,1.87,33.64,3.58,50.45,5.44,17.46,1.94,34.92,4,52.38,6-.95,3-1.89,6-2.84,9-24.86-2.75-49.72-5.41-74.57-8.27-24.35-2.8-48.67-5.81-73-8.69-9.21-1.09-18.44-2-27.65-3.14-1-.13-1.94-1.26-2.91-1.92Z" transform="translate(-381.45 -50.1)"/><path class="cls-20" d="M831.12,571.09c3,2.27,5.89,4.63,9,6.78,2.23,1.57,4.66,2.86,7,4.27-5.33,9.29-5.33,9.29,1,17.37-10.14,5.72-20.13,11.41-30.21,16.93-.78.43-2.24-.11-3.28-.46-8.29-2.83-16.46-3.17-24.7.42a6.64,6.64,0,0,1-5.09-.65c-10.53-5.92-21-12-31.38-18.17-1.3-.78-2.19-2.26-3.27-3.41l42,4.81c4.44.52,8.92.89,13.32,1.67,10.63,1.88,16.22-1.35,19.67-11.63Q828.12,580.06,831.12,571.09Z" transform="translate(-381.45 -50.1)"/><path class="cls-7" d="M879,521l3.2-2.52c3.14,2.91,2.87,5.5.13,8.83a21.2,21.2,0,0,0-4.06,8.8c-.71,3.22-2.24,3.87-5.14,4a18.23,18.23,0,0,0-7.08,1.62c-2.8,1.37-3.72,3.69-1.07,6.3-8.68,3.22-17.52,4.21-26.6,1.81a.43.43,0,0,1,.12-.58l.3-9.33v-.32c.07-.52.15-1,.22-1.56,6.55-.71,13.35-.52,19.57-2.34C866.87,533.27,875.38,530.26,879,521Z" transform="translate(-381.45 -50.1)"/><path class="cls-13" d="M838.82,539.91l-.3,9.33C838.61,546.13,838.72,543,838.82,539.91Z" transform="translate(-381.45 -50.1)"/><path class="cls-23" d="M839.05,538c-.07.52-.15,1-.22,1.56-.56-.26-1.11-.54-1.66-.81L836.09,536Z" transform="translate(-381.45 -50.1)"/><path class="cls-13" d="M788.25,436.05c.45-3.13.89-6.26,1.34-9.39,7.84,15.83,22.09,20.38,38.16,21.3,11.34.65,22.62-.09,32.79-5.86,3.79-2.16,7-5.37,10.47-8.09-.19,1.4.07,3.11-.64,4.17-5.23,7.88-13.09,12-22,14.09-14.91,3.47-29.78,3.68-43.91-3.17-5.1-2.47-9.66-6-14.47-9.1h0C789.42,438.68,788.83,437.37,788.25,436.05Z" transform="translate(-381.45 -50.1)"/><path class="cls-13" d="M789.78,442.37c-.31-.78-.62-1.55-.94-2.33l1.16,0h0Z" transform="translate(-381.45 -50.1)"/><path class="cls-13" d="M794.21,450l-.33-.93a5.3,5.3,0,0,1,.59.57S794.3,449.85,794.21,450Z" transform="translate(-381.45 -50.1)"/><path class="cls-13" d="M839.05,538l-3-2.06-.06,0-4-4.78c16.81,2.36,32.25-.87,46-11.21L879,521c-3.64,9.26-12.15,12.27-20.4,14.69C852.4,537.51,845.6,537.32,839.05,538Z" transform="translate(-381.45 -50.1)"/><path class="cls-23" d="M832,531.15l4,4.78c-4.17-1-8.29-2.35-12.51-2.9-14.51-1.89-29-3.5-43.58-5.21a2.68,2.68,0,0,1,.14-.79L797,522c.2,2.18.41,4.37.67,7H806l18.15,1.88,2.8.07,1,0Z" transform="translate(-381.45 -50.1)"/><path class="cls-13" d="M828,531l-1,0Z" transform="translate(-381.45 -50.1)"/><path class="cls-7" d="M885.08,527.2c.34.57.81,1,.71,1.25-.21.44-.72.73-1.1,1.08-.17-.4-.49-.82-.46-1.21S884.68,527.69,885.08,527.2Z" transform="translate(-381.45 -50.1)"/><path class="cls-7" d="M790,440l-1.16,0c-.2-1.33-.39-2.66-.59-4C788.83,437.37,789.42,438.68,790,440Z" transform="translate(-381.45 -50.1)"/><path class="cls-17" d="M715.56,482l-.48,8.34-6.58-4Z" transform="translate(-381.45 -50.1)"/><path class="cls-2" d="M395.08,364.78a22.23,22.23,0,0,1,4.55-1.55c2.43-.3,6.65,5,6.14,8.06-.21,1.22-1.84,2.19-2.82,3.28L396,367.76Z" transform="translate(-381.45 -50.1)"/><path class="cls-2" d="M495,423a23.3,23.3,0,0,1-4.59,1.52c-2.51.31-6.68-4.93-6.17-8,.21-1.23,1.82-2.22,2.78-3.32l6.95,6.83C494.27,421,494.61,422,495,423Z" transform="translate(-381.45 -50.1)"/><path class="cls-27" d="M760.48,501.28q-8.12.56-16.23,1.13c-.48,0-.94.4-1.42.42-2.62.07-15.07-9.87-15.81-12.58-2.28-8.37-.64-12.67,7.17-16.81,15.88-8.4,31.88-7.83,47.53.52,9.56,5.1,9.62,16.75.82,23.14a24.08,24.08,0,0,1-13.63,5l.06,0-.85-1.06a.35.35,0,0,1-.22-.53c-2.66-3.13-4.81-1.24-7,.69l-.2.2Z" transform="translate(-381.45 -50.1)"/><path class="cls-3" d="M658,526.9l-3.13,7.21Q652.9,539.06,651,544l-20.17-10.64c9.4-5.66,17.4-10.56,25.48-15.31,13.66-8,27.41-15.9,41.06-24,3.56-2.1,6.27-3,10.59-.39,16.56,10,33.57,19.36,50.37,29a25.8,25.8,0,0,1,3.71,3.18l-18-2c-.27-.58-.38-1.43-.83-1.7-8-4.75-15.91-9.53-24-14-1.32-.73-3.48-.58-5-.12-6.62,1.94-13.21,3-20,.85-6.59-2.11-14.71.86-19.12,7-3.39.38-6.84.49-10.17,1.18C659.64,518.19,657.54,521.75,658,526.9Z" transform="translate(-381.45 -50.1)"/><path class="cls-3" d="M767.19,520.63l-21.05-12c5.17-1,9.07-2,13-2.45a4.25,4.25,0,0,1,3.31,2.12C764.1,511.81,765.3,515.55,767.19,520.63Z" transform="translate(-381.45 -50.1)"/><path class="cls-23" d="M760.94,501.19c2.15-1.93,4.3-3.82,7-.69Z" transform="translate(-381.45 -50.1)"/><path class="cls-23" d="M768.12,501l.85,1.06Z" transform="translate(-381.45 -50.1)"/><path class="cls-7" d="M805,529h-7.33c-.26-2.67-.47-4.86-.67-7,0-1,.11-2,.16-3Z" transform="translate(-381.45 -50.1)"/><path class="cls-7" d="M806,529h0Z" transform="translate(-381.45 -50.1)"/><path class="cls-28" d="M660.19,550.34c.39-5.25,1.66-7.8,7.31-7.11,34.71,4.17,69.47,8,104.21,11.92l46.7,5.29c-.9,2.71-1.66,5-2.49,7.51ZM759,559l28.21,3.2C783.2,558.36,763,556,759,559Zm51.24,4.26c-12.18-2.93-19-2.94-20.23-.59C796.88,563.66,803.55,565,810.25,563.26Z" transform="translate(-381.45 -50.1)"/><path class="cls-29" d="M739.72,564l73.72,8.19c-.06.63-.13,1.26-.2,1.88l-73.61-8.33Z" transform="translate(-381.45 -50.1)"/><path class="cls-29" d="M739,567.68,812.52,576c-.06.57-.13,1.14-.19,1.71l-73.56-8.2Z" transform="translate(-381.45 -50.1)"/><path class="cls-29" d="M811.33,581.76,737,573.32c.06-.53.12-1.06.17-1.58L811.45,580Z" transform="translate(-381.45 -50.1)"/><path class="cls-20" d="M675,515.94c4.41-6.18,12.53-9.15,19.12-7,6.76,2.18,13.35,1.09,20-.85,1.56-.46,3.72-.61,5,.12,8.11,4.5,16.06,9.28,24,14,.45.27.56,1.12.83,1.7L682.37,517C679.91,516.68,677.46,516.28,675,515.94Z" transform="translate(-381.45 -50.1)"/><path class="cls-29" d="M759,559c4-3,24.19-.64,28.21,3.2Z" transform="translate(-381.45 -50.1)"/><path class="cls-29" d="M810.25,563.26c-6.7,1.69-13.37.4-20.23-.59C791.21,560.32,798.07,560.33,810.25,563.26Z" transform="translate(-381.45 -50.1)"/></svg>